<svg width="24" height="24" viewBox="0 0 24 24" fill="none" xmlns="http://www.w3.org/2000/svg">
<g clip-path="url(#clip0_846_343)">
<path d="M22.2026 4.13794H1.79742C0.804703 4.13794 0 4.94264 0 5.93536V18.0647C0 19.0574 0.804703 19.8621 1.79742 19.8621H22.2026C23.1952 19.8621 24 19.0574 24 18.0647V5.93536C24 4.94264 23.1953 4.13794 22.2026 4.13794Z" fill="#F5F5F5"/>
<path d="M0.0988594 5.3475H23.9011C23.6575 4.64358 22.9893 4.13794 22.2026 4.13794H1.79742C1.01067 4.13794 0.342469 4.64358 0.0988594 5.3475Z" fill="#FF4B55"/>
<path d="M24 8.9761H0V10.1856H24V8.9761Z" fill="#FF4B55"/>
<path d="M24 6.55688H0V7.76639H24V6.55688Z" fill="#FF4B55"/>
<path d="M0 12.191C0 12.4195 0.185297 12.6048 0.413813 12.6048H24V11.3952H0V12.191Z" fill="#FF4B55"/>
<path d="M24 16.2338H0V17.4433H24V16.2338Z" fill="#FF4B55"/>
<path d="M23.9011 18.6525H0.0988594C0.342469 19.3564 1.01072 19.8621 1.79742 19.8621H22.2026C22.9893 19.8621 23.6575 19.3564 23.9011 18.6525Z" fill="#FF4B55"/>
<path d="M24 13.8145H0V15.024H24V13.8145Z" fill="#FF4B55"/>
<path d="M0.413813 12.6048L10.7587 12.6048C10.9872 12.6048 11.1725 12.4195 11.1725 12.191V4.55171C11.1725 4.32314 10.9872 4.13789 10.7587 4.13789L1.79742 4.13794C0.804703 4.13794 0 4.94264 0 5.93536V12.191C0 12.4195 0.185297 12.6048 0.413813 12.6048Z" fill="#41479B"/>
<path d="M1.16235 5.08775L1.25394 5.36244L1.54349 5.36464C1.58099 5.36497 1.59651 5.41278 1.56636 5.43505L1.33344 5.60703L1.42082 5.88308C1.43216 5.9188 1.39143 5.94842 1.36091 5.92658L1.12536 5.75825L0.889818 5.92663C0.859302 5.94847 0.818661 5.91884 0.829911 5.88313L0.917286 5.60708L0.684365 5.43509C0.654224 5.41278 0.669739 5.36497 0.70724 5.36469L0.996786 5.36249L1.08838 5.0878C1.10019 5.05217 1.15044 5.05217 1.16235 5.08775Z" fill="#F5F5F5"/>
<path d="M1.16235 6.52453L1.25394 6.79922L1.54349 6.80142C1.58099 6.80175 1.59651 6.84952 1.56636 6.87183L1.33344 7.04386L1.42082 7.31991C1.43216 7.35563 1.39143 7.38525 1.36091 7.36341L1.12536 7.19508L0.889818 7.36346C0.859302 7.38525 0.818661 7.35567 0.829911 7.31996L0.917286 7.04391L0.684364 6.87188C0.654224 6.84956 0.669739 6.8018 0.707239 6.80147L0.996786 6.79927L1.08838 6.52458C1.10019 6.489 1.15044 6.489 1.16235 6.52453Z" fill="#F5F5F5"/>
<path d="M1.16235 7.96149L1.25394 8.23617L1.54349 8.23838C1.58099 8.23871 1.59651 8.28647 1.56636 8.30878L1.33344 8.48081L1.42082 8.75686C1.43216 8.79258 1.39143 8.82221 1.36091 8.80036L1.12536 8.63203L0.889818 8.80041C0.859302 8.82221 0.818661 8.79267 0.829911 8.75691L0.917286 8.48086L0.684364 8.30883C0.654224 8.28652 0.669739 8.23875 0.707239 8.23842L0.996786 8.23622L1.08838 7.96153C1.10019 7.92591 1.15044 7.92591 1.16235 7.96149Z" fill="#F5F5F5"/>
<path d="M1.16235 9.39839L1.25394 9.67308L1.54349 9.67528C1.58099 9.67561 1.59651 9.72342 1.56636 9.74569L1.33344 9.91772L1.42082 10.1938C1.43216 10.2295 1.39143 10.2591 1.36091 10.2373L1.12536 10.0689L0.889818 10.2373C0.859302 10.2591 0.818661 10.2295 0.829911 10.1938L0.917286 9.91777L0.684364 9.74574C0.654224 9.72352 0.669739 9.67566 0.707239 9.67533L0.996786 9.67313L1.08838 9.39844C1.10019 9.36281 1.15044 9.36281 1.16235 9.39839Z" fill="#F5F5F5"/>
<path d="M1.16235 10.8353L1.25394 11.11L1.54349 11.1122C1.58099 11.1125 1.59651 11.1603 1.56636 11.1826L1.33344 11.3546L1.42082 11.6307C1.43216 11.6664 1.39143 11.696 1.36091 11.6742L1.12536 11.5058L0.889818 11.6742C0.859302 11.696 0.818661 11.6664 0.829911 11.6307L0.917286 11.3547L0.684364 11.1826C0.654224 11.1603 0.669739 11.1126 0.707239 11.1122L0.996786 11.11L1.08838 10.8353C1.10019 10.7998 1.15044 10.7998 1.16235 10.8353Z" fill="#F5F5F5"/>
<path d="M2.27765 5.79211L2.36924 6.0668L2.65879 6.069C2.69629 6.06933 2.7118 6.11714 2.68166 6.13941L2.44874 6.31144L2.53611 6.58749C2.54746 6.62321 2.50672 6.65283 2.47621 6.63099L2.24066 6.46261L2.00511 6.63099C1.9746 6.65278 1.93396 6.62321 1.94521 6.58749L2.03258 6.31144L1.79966 6.13941C1.76952 6.1171 1.78504 6.06933 1.82254 6.069L2.11208 6.0668L2.20368 5.79211C2.21549 5.75658 2.26579 5.75658 2.27765 5.79211Z" fill="#F5F5F5"/>
<path d="M2.27765 7.22906L2.36924 7.50375L2.65879 7.50596C2.69629 7.50628 2.7118 7.5541 2.68166 7.57636L2.44874 7.74839L2.53611 8.02444C2.54746 8.06016 2.50672 8.08978 2.47621 8.06794L2.24066 7.89956L2.00511 8.06794C1.9746 8.08974 1.93396 8.06021 1.94521 8.02444L2.03258 7.74839L1.79966 7.57636C1.76952 7.55414 1.78504 7.50628 1.82254 7.50596L2.11208 7.50375L2.20368 7.22906C2.21549 7.19349 2.26579 7.19349 2.27765 7.22906Z" fill="#F5F5F5"/>
<path d="M2.27765 8.66597L2.36924 8.94066L2.65879 8.94286C2.69629 8.94319 2.7118 8.99096 2.68166 9.01327L2.44874 9.1853L2.53611 9.46135C2.54746 9.49707 2.50672 9.52669 2.47621 9.50485L2.24066 9.33647L2.00511 9.50485C1.9746 9.52664 1.93396 9.49707 1.94521 9.46135L2.03258 9.1853L1.79966 9.01327C1.76952 8.99096 1.78504 8.94319 1.82254 8.94286L2.11208 8.94066L2.20368 8.66597C2.21549 8.63039 2.26579 8.63039 2.27765 8.66597Z" fill="#F5F5F5"/>
<path d="M2.27765 10.1029L2.36924 10.3776L2.65879 10.3798C2.69629 10.3801 2.7118 10.4279 2.68166 10.4502L2.44874 10.6222L2.53611 10.8983C2.54746 10.934 2.50672 10.9636 2.47621 10.9418L2.24066 10.7734L2.00511 10.9418C1.9746 10.9636 1.93396 10.934 1.94521 10.8983L2.03258 10.6222L1.79966 10.4502C1.76952 10.4279 1.78504 10.3801 1.82254 10.3798L2.11208 10.3776L2.20368 10.1029C2.21549 10.0673 2.26579 10.0673 2.27765 10.1029Z" fill="#F5F5F5"/>
<path d="M3.39294 5.08763L3.48454 5.36231L3.77408 5.36452C3.81158 5.36485 3.8271 5.41266 3.79696 5.43492L3.56404 5.60691L3.65141 5.88296C3.66276 5.91867 3.62202 5.9483 3.59151 5.92646L3.35596 5.75808L3.12041 5.92646C3.0899 5.9483 3.04925 5.91867 3.0605 5.88296L3.14788 5.60691L2.91496 5.43492C2.88482 5.41261 2.90033 5.3648 2.93783 5.36452L3.22738 5.36231L3.31897 5.08763C3.33079 5.05205 3.38108 5.05205 3.39294 5.08763Z" fill="#F5F5F5"/>
<path d="M3.39294 6.52453L3.48454 6.79922L3.77408 6.80142C3.81158 6.80175 3.8271 6.84952 3.79696 6.87183L3.56404 7.04386L3.65141 7.31991C3.66276 7.35563 3.62202 7.38525 3.59151 7.36341L3.35596 7.19503L3.12041 7.36341C3.0899 7.38521 3.04925 7.35563 3.0605 7.31991L3.14788 7.04386L2.91496 6.87183C2.88482 6.84952 2.90033 6.80175 2.93783 6.80142L3.22738 6.79922L3.31897 6.52453C3.33079 6.489 3.38108 6.489 3.39294 6.52453Z" fill="#F5F5F5"/>
<path d="M3.39294 7.96149L3.48454 8.23617L3.77408 8.23838C3.81158 8.23871 3.8271 8.28647 3.79696 8.30878L3.56404 8.48082L3.65141 8.75686C3.66276 8.79258 3.62202 8.82221 3.59151 8.80036L3.35596 8.63199L3.12041 8.80036C3.0899 8.82216 3.04925 8.79263 3.0605 8.75686L3.14788 8.48082L2.91496 8.30878C2.88482 8.28647 2.90033 8.23871 2.93783 8.23838L3.22738 8.23617L3.31897 7.96149C3.33079 7.92591 3.38108 7.92591 3.39294 7.96149Z" fill="#F5F5F5"/>
<path d="M3.39294 9.39839L3.48454 9.67308L3.77408 9.67528C3.81158 9.67561 3.8271 9.72342 3.79696 9.74569L3.56404 9.91772L3.65141 10.1938C3.66276 10.2295 3.62202 10.2591 3.59151 10.2373L3.35596 10.0689L3.12041 10.2373C3.0899 10.2591 3.04925 10.2295 3.0605 10.1938L3.14788 9.91772L2.91496 9.74569C2.88482 9.72347 2.90033 9.67561 2.93783 9.67528L3.22738 9.67308L3.31897 9.39839C3.33079 9.36281 3.38108 9.36281 3.39294 9.39839Z" fill="#F5F5F5"/>
<path d="M3.39294 10.8353L3.48454 11.11L3.77408 11.1122C3.81158 11.1125 3.8271 11.1603 3.79696 11.1826L3.56404 11.3546L3.65141 11.6307C3.66276 11.6664 3.62202 11.696 3.59151 11.6742L3.35596 11.5058L3.12041 11.6742C3.0899 11.696 3.04925 11.6664 3.0605 11.6307L3.14788 11.3546L2.91496 11.1826C2.88482 11.1603 2.90033 11.1125 2.93783 11.1122L3.22738 11.11L3.31897 10.8353C3.33079 10.7998 3.38108 10.7998 3.39294 10.8353Z" fill="#F5F5F5"/>
<path d="M4.50829 5.79211L4.59988 6.0668L4.88943 6.069C4.92693 6.06933 4.94244 6.11714 4.9123 6.13941L4.67938 6.31144L4.76676 6.58749C4.7781 6.62321 4.73736 6.65283 4.70685 6.63099L4.4713 6.46261L4.23576 6.63099C4.20524 6.65278 4.1646 6.62321 4.17585 6.58749L4.26322 6.31144L4.0303 6.13941C4.00016 6.1171 4.01568 6.06933 4.05318 6.069L4.34272 6.0668L4.43432 5.79211C4.44608 5.75658 4.49643 5.75658 4.50829 5.79211Z" fill="#F5F5F5"/>
<path d="M4.50829 7.22906L4.59988 7.50375L4.88943 7.50596C4.92693 7.50628 4.94244 7.5541 4.9123 7.57636L4.67938 7.74839L4.76676 8.02444C4.7781 8.06016 4.73736 8.08978 4.70685 8.06794L4.4713 7.89956L4.23576 8.06794C4.20524 8.08974 4.1646 8.06021 4.17585 8.02444L4.26322 7.74839L4.0303 7.57636C4.00016 7.55414 4.01568 7.50628 4.05318 7.50596L4.34272 7.50375L4.43432 7.22906C4.44608 7.19349 4.49643 7.19349 4.50829 7.22906Z" fill="#F5F5F5"/>
<path d="M4.50829 8.66597L4.59988 8.94066L4.88943 8.94286C4.92693 8.94319 4.94244 8.99096 4.9123 9.01327L4.67938 9.1853L4.76676 9.46135C4.7781 9.49707 4.73736 9.52669 4.70685 9.50485L4.4713 9.33647L4.23576 9.50485C4.20524 9.52664 4.1646 9.49707 4.17585 9.46135L4.26322 9.1853L4.0303 9.01327C4.00016 8.99096 4.01568 8.94319 4.05318 8.94286L4.34272 8.94066L4.43432 8.66597C4.44608 8.63039 4.49643 8.63039 4.50829 8.66597Z" fill="#F5F5F5"/>
<path d="M4.50829 10.1029L4.59988 10.3776L4.88943 10.3798C4.92693 10.3801 4.94244 10.4279 4.9123 10.4502L4.67938 10.6222L4.76676 10.8983C4.7781 10.934 4.73736 10.9636 4.70685 10.9418L4.4713 10.7734L4.23576 10.9418C4.20524 10.9636 4.1646 10.934 4.17585 10.8983L4.26322 10.6222L4.0303 10.4502C4.00016 10.4279 4.01568 10.3801 4.05318 10.3798L4.34272 10.3776L4.43432 10.1029C4.44608 10.0673 4.49643 10.0673 4.50829 10.1029Z" fill="#F5F5F5"/>
<path d="M5.62358 5.08763L5.71518 5.36231L6.00472 5.36452C6.04222 5.36485 6.05774 5.41266 6.0276 5.43492L5.79468 5.60691L5.88205 5.88296C5.8934 5.91867 5.85266 5.9483 5.82215 5.92646L5.58655 5.75813L5.35101 5.9265C5.32049 5.94835 5.27985 5.91872 5.2911 5.883L5.37847 5.60696L5.14555 5.43497C5.11541 5.41266 5.13093 5.36485 5.16843 5.36456L5.45797 5.36236L5.54957 5.08767C5.56143 5.05205 5.61172 5.05205 5.62358 5.08763Z" fill="#F5F5F5"/>
<path d="M5.62358 6.52453L5.71518 6.79922L6.00472 6.80142C6.04222 6.80175 6.05774 6.84952 6.0276 6.87183L5.79468 7.04386L5.88205 7.31991C5.8934 7.35563 5.85266 7.38525 5.82215 7.36341L5.58655 7.19503L5.35101 7.36341C5.32049 7.38521 5.27985 7.35563 5.2911 7.31991L5.37847 7.04386L5.14555 6.87183C5.11541 6.84952 5.13093 6.80175 5.16843 6.80142L5.45797 6.79922L5.54957 6.52453C5.56143 6.489 5.61172 6.489 5.62358 6.52453Z" fill="#F5F5F5"/>
<path d="M5.62358 7.96149L5.71518 8.23617L6.00472 8.23838C6.04222 8.23871 6.05774 8.28647 6.0276 8.30878L5.79468 8.48081L5.88205 8.75686C5.8934 8.79258 5.85266 8.82221 5.82215 8.80036L5.58655 8.63194L5.35101 8.80031C5.32049 8.82211 5.27985 8.79253 5.2911 8.75681L5.37847 8.48077L5.14555 8.30874C5.11541 8.28642 5.13093 8.23866 5.16843 8.23833L5.45797 8.23613L5.54957 7.96144C5.56143 7.92591 5.61172 7.92591 5.62358 7.96149Z" fill="#F5F5F5"/>
<path d="M5.62358 9.39839L5.71518 9.67308L6.00472 9.67528C6.04222 9.67561 6.05774 9.72342 6.0276 9.74569L5.79468 9.91772L5.88205 10.1938C5.8934 10.2295 5.85266 10.2591 5.82215 10.2373L5.58655 10.0689L5.35101 10.2373C5.32049 10.2591 5.27985 10.2295 5.2911 10.1938L5.37847 9.91772L5.14555 9.74569C5.11541 9.72347 5.13093 9.67561 5.16843 9.67528L5.45797 9.67308L5.54957 9.39839C5.56143 9.36281 5.61172 9.36281 5.62358 9.39839Z" fill="#F5F5F5"/>
<path d="M5.62358 10.8353L5.71518 11.11L6.00472 11.1122C6.04222 11.1125 6.05774 11.1603 6.0276 11.1826L5.79468 11.3546L5.88205 11.6307C5.8934 11.6664 5.85266 11.696 5.82215 11.6742L5.58655 11.5058L5.35101 11.6742C5.32049 11.696 5.27985 11.6664 5.2911 11.6307L5.37847 11.3546L5.14555 11.1826C5.11541 11.1603 5.13093 11.1125 5.16843 11.1122L5.45797 11.11L5.54957 10.8353C5.56143 10.7998 5.61172 10.7998 5.62358 10.8353Z" fill="#F5F5F5"/>
<path d="M6.73888 5.79211L6.83047 6.0668L7.12002 6.069C7.15752 6.06933 7.17304 6.11714 7.1429 6.13941L6.90997 6.31144L6.99735 6.58749C7.00869 6.62321 6.96796 6.65283 6.93744 6.63099L6.7019 6.46261L6.46635 6.63099C6.43583 6.65278 6.39519 6.62321 6.40644 6.58749L6.49382 6.31144L6.2609 6.13941C6.23076 6.1171 6.24627 6.06933 6.28377 6.069L6.57332 6.0668L6.66491 5.79211C6.67677 5.75658 6.72702 5.75658 6.73888 5.79211Z" fill="#F5F5F5"/>
<path d="M6.73888 7.22906L6.83047 7.50375L7.12002 7.50596C7.15752 7.50628 7.17304 7.5541 7.1429 7.57636L6.90997 7.74839L6.99735 8.02444C7.00869 8.06016 6.96796 8.08978 6.93744 8.06794L6.7019 7.89956L6.46635 8.06794C6.43583 8.08974 6.39519 8.06021 6.40644 8.02444L6.49382 7.74839L6.2609 7.57636C6.23076 7.55414 6.24627 7.50628 6.28377 7.50596L6.57332 7.50375L6.66491 7.22906C6.67677 7.19349 6.72702 7.19349 6.73888 7.22906Z" fill="#F5F5F5"/>
<path d="M6.73888 8.66597L6.83047 8.94066L7.12002 8.94286C7.15752 8.94319 7.17304 8.99096 7.1429 9.01327L6.90997 9.1853L6.99735 9.46135C7.00869 9.49707 6.96796 9.52669 6.93744 9.50485L6.7019 9.33647L6.46635 9.50485C6.43583 9.52664 6.39519 9.49707 6.40644 9.46135L6.49382 9.1853L6.2609 9.01327C6.23076 8.99096 6.24627 8.94319 6.28377 8.94286L6.57332 8.94066L6.66491 8.66597C6.67677 8.63039 6.72702 8.63039 6.73888 8.66597Z" fill="#F5F5F5"/>
<path d="M6.73888 10.1029L6.83047 10.3776L7.12002 10.3798C7.15752 10.3801 7.17304 10.4279 7.1429 10.4502L6.90997 10.6222L6.99735 10.8983C7.00869 10.934 6.96796 10.9636 6.93744 10.9418L6.7019 10.7734L6.46635 10.9418C6.43583 10.9636 6.39519 10.934 6.40644 10.8983L6.49382 10.6222L6.2609 10.4502C6.23076 10.4279 6.24627 10.3801 6.28377 10.3798L6.57332 10.3776L6.66491 10.1029C6.67677 10.0673 6.72702 10.0673 6.73888 10.1029Z" fill="#F5F5F5"/>
<path d="M7.85422 5.08763L7.94582 5.36231L8.23536 5.36452C8.27286 5.36485 8.28838 5.41266 8.25824 5.43492L8.02532 5.60691L8.11269 5.88296C8.12404 5.91867 8.0833 5.9483 8.05279 5.92646L7.81724 5.75808L7.58169 5.92646C7.55118 5.9483 7.51054 5.91867 7.52179 5.88296L7.60916 5.60691L7.37624 5.43492C7.3461 5.41261 7.36161 5.3648 7.39911 5.36452L7.68866 5.36231L7.78026 5.08763C7.79202 5.05205 7.84236 5.05205 7.85422 5.08763Z" fill="#F5F5F5"/>
<path d="M7.85422 6.52453L7.94582 6.79922L8.23536 6.80142C8.27286 6.80175 8.28838 6.84952 8.25824 6.87183L8.02532 7.04386L8.11269 7.31991C8.12404 7.35563 8.0833 7.38525 8.05279 7.36341L7.81724 7.19503L7.58169 7.36341C7.55118 7.38521 7.51054 7.35563 7.52179 7.31991L7.60916 7.04386L7.37624 6.87183C7.3461 6.84952 7.36161 6.80175 7.39911 6.80142L7.68866 6.79922L7.78026 6.52453C7.79202 6.489 7.84236 6.489 7.85422 6.52453Z" fill="#F5F5F5"/>
<path d="M7.85422 7.96149L7.94582 8.23617L8.23536 8.23838C8.27286 8.23871 8.28838 8.28647 8.25824 8.30878L8.02532 8.48082L8.11269 8.75686C8.12404 8.79258 8.0833 8.82221 8.05279 8.80036L7.81724 8.63199L7.58169 8.80036C7.55118 8.82216 7.51054 8.79263 7.52179 8.75686L7.60916 8.48082L7.37624 8.30878C7.3461 8.28647 7.36161 8.23871 7.39911 8.23838L7.68866 8.23617L7.78026 7.96149C7.79202 7.92591 7.84236 7.92591 7.85422 7.96149Z" fill="#F5F5F5"/>
<path d="M7.85422 9.39839L7.94582 9.67308L8.23536 9.67528C8.27286 9.67561 8.28838 9.72342 8.25824 9.74569L8.02532 9.91772L8.11269 10.1938C8.12404 10.2295 8.0833 10.2591 8.05279 10.2373L7.81724 10.0689L7.58169 10.2373C7.55118 10.2591 7.51054 10.2295 7.52179 10.1938L7.60916 9.91772L7.37624 9.74569C7.3461 9.72347 7.36161 9.67561 7.39911 9.67528L7.68866 9.67308L7.78026 9.39839C7.79202 9.36281 7.84236 9.36281 7.85422 9.39839Z" fill="#F5F5F5"/>
<path d="M7.85422 10.8353L7.94582 11.11L8.23536 11.1122C8.27286 11.1125 8.28838 11.1603 8.25824 11.1826L8.02532 11.3546L8.11269 11.6307C8.12404 11.6664 8.0833 11.696 8.05279 11.6742L7.81724 11.5058L7.58169 11.6742C7.55118 11.696 7.51054 11.6664 7.52179 11.6307L7.60916 11.3546L7.37624 11.1826C7.3461 11.1603 7.36161 11.1125 7.39911 11.1122L7.68866 11.11L7.78026 10.8353C7.79202 10.7998 7.84236 10.7998 7.85422 10.8353Z" fill="#F5F5F5"/>
<path d="M8.96952 5.79211L9.06112 6.0668L9.35066 6.069C9.38816 6.06933 9.40368 6.11714 9.37354 6.13941L9.14062 6.31144L9.22799 6.58749C9.23933 6.62321 9.1986 6.65283 9.16808 6.63099L8.93254 6.46261L8.69699 6.63099C8.66647 6.65278 8.62583 6.62321 8.63708 6.58749L8.72446 6.31144L8.49154 6.13941C8.4614 6.1171 8.47691 6.06933 8.51441 6.069L8.80396 6.0668L8.89555 5.79211C8.90736 5.75658 8.95766 5.75658 8.96952 5.79211Z" fill="#F5F5F5"/>
<path d="M8.96952 7.22906L9.06112 7.50375L9.35066 7.50596C9.38816 7.50628 9.40368 7.5541 9.37354 7.57636L9.14062 7.74839L9.22799 8.02444C9.23933 8.06016 9.1986 8.08978 9.16808 8.06794L8.93254 7.89956L8.69699 8.06794C8.66647 8.08974 8.62583 8.06021 8.63708 8.02444L8.72446 7.74839L8.49154 7.57636C8.4614 7.55414 8.47691 7.50628 8.51441 7.50596L8.80396 7.50375L8.89555 7.22906C8.90736 7.19349 8.95766 7.19349 8.96952 7.22906Z" fill="#F5F5F5"/>
<path d="M8.96952 8.66597L9.06112 8.94066L9.35066 8.94286C9.38816 8.94319 9.40368 8.99096 9.37354 9.01327L9.14062 9.1853L9.22799 9.46135C9.23933 9.49707 9.1986 9.52669 9.16808 9.50485L8.93254 9.33647L8.69699 9.50485C8.66647 9.52664 8.62583 9.49707 8.63708 9.46135L8.72446 9.1853L8.49154 9.01327C8.4614 8.99096 8.47691 8.94319 8.51441 8.94286L8.80396 8.94066L8.89555 8.66597C8.90736 8.63039 8.95766 8.63039 8.96952 8.66597Z" fill="#F5F5F5"/>
<path d="M8.96952 10.1029L9.06112 10.3776L9.35066 10.3798C9.38816 10.3801 9.40368 10.4279 9.37354 10.4502L9.14062 10.6222L9.22799 10.8983C9.23933 10.934 9.1986 10.9636 9.16808 10.9418L8.93254 10.7734L8.69699 10.9418C8.66647 10.9636 8.62583 10.934 8.63708 10.8983L8.72446 10.6222L8.49154 10.4502C8.4614 10.4279 8.47691 10.3801 8.51441 10.3798L8.80396 10.3776L8.89555 10.1029C8.90736 10.0673 8.95766 10.0673 8.96952 10.1029Z" fill="#F5F5F5"/>
<path d="M10.0849 5.08763L10.1765 5.36231L10.466 5.36452C10.5035 5.36485 10.519 5.41266 10.4889 5.43492L10.256 5.60691L10.3433 5.88296C10.3547 5.91867 10.3139 5.9483 10.2834 5.92646L10.0479 5.75808L9.81233 5.92646C9.78182 5.9483 9.74118 5.91867 9.75243 5.88296L9.8398 5.60691L9.60688 5.43492C9.57674 5.41261 9.59226 5.3648 9.62976 5.36452L9.9193 5.36231L10.0109 5.08763C10.0227 5.05205 10.073 5.05205 10.0849 5.08763Z" fill="#F5F5F5"/>
<path d="M10.0849 6.52453L10.1765 6.79922L10.466 6.80142C10.5035 6.80175 10.519 6.84952 10.4889 6.87183L10.256 7.04386L10.3433 7.31991C10.3547 7.35563 10.3139 7.38525 10.2834 7.36341L10.0479 7.19503L9.81233 7.36341C9.78182 7.38521 9.74118 7.35563 9.75243 7.31991L9.8398 7.04386L9.60688 6.87183C9.57674 6.84952 9.59226 6.80175 9.62976 6.80142L9.9193 6.79922L10.0109 6.52453C10.0227 6.489 10.073 6.489 10.0849 6.52453Z" fill="#F5F5F5"/>
<path d="M10.0849 7.96149L10.1765 8.23617L10.466 8.23838C10.5035 8.23871 10.519 8.28647 10.4889 8.30878L10.256 8.48082L10.3433 8.75686C10.3547 8.79258 10.3139 8.82221 10.2834 8.80036L10.0479 8.63199L9.81233 8.80036C9.78182 8.82216 9.74118 8.79263 9.75243 8.75686L9.8398 8.48082L9.60688 8.30878C9.57674 8.28647 9.59226 8.23871 9.62976 8.23838L9.9193 8.23617L10.0109 7.96149C10.0227 7.92591 10.073 7.92591 10.0849 7.96149Z" fill="#F5F5F5"/>
<path d="M10.0849 9.39839L10.1765 9.67308L10.466 9.67528C10.5035 9.67561 10.519 9.72342 10.4889 9.74569L10.256 9.91772L10.3433 10.1938C10.3547 10.2295 10.3139 10.2591 10.2834 10.2373L10.0479 10.0689L9.81233 10.2373C9.78182 10.2591 9.74118 10.2295 9.75243 10.1938L9.8398 9.91772L9.60688 9.74569C9.57674 9.72347 9.59226 9.67561 9.62976 9.67528L9.9193 9.67308L10.0109 9.39839C10.0227 9.36281 10.073 9.36281 10.0849 9.39839Z" fill="#F5F5F5"/>
<path d="M10.0849 10.8353L10.1765 11.11L10.466 11.1122C10.5035 11.1125 10.519 11.1603 10.4889 11.1826L10.256 11.3546L10.3433 11.6307C10.3547 11.6664 10.3139 11.696 10.2834 11.6742L10.0479 11.5058L9.81233 11.6742C9.78182 11.696 9.74118 11.6664 9.75243 11.6307L9.8398 11.3546L9.60688 11.1826C9.57674 11.1603 9.59226 11.1125 9.62976 11.1122L9.9193 11.11L10.0109 10.8353C10.0227 10.7998 10.073 10.7998 10.0849 10.8353Z" fill="#F5F5F5"/>
</g>
<defs>
<clipPath id="clip0_846_343">
<rect width="24" height="24" fill="white"/>
</clipPath>
</defs>
</svg>
