<svg width="28" height="28" viewBox="0 0 28 28" fill="none" xmlns="http://www.w3.org/2000/svg">
<rect width="28" height="28" rx="5" fill="#E5CC7A" fill-opacity="0.2"/>
<path d="M17.6 22V20.2222C17.6 19.2792 17.2207 18.3749 16.5456 17.7081C15.8705 17.0413 14.9548 16.6667 14 16.6667H8.6C7.64522 16.6667 6.72955 17.0413 6.05442 17.7081C5.37928 18.3749 5 19.2792 5 20.2222V22M23 22V20.2222C22.9994 19.4344 22.7339 18.6691 22.2452 18.0465C21.7565 17.4239 21.0723 16.9792 20.3 16.7822M17.6 6.11556C18.3744 6.31138 19.0607 6.75618 19.5509 7.37983C20.041 8.00348 20.3071 8.77052 20.3071 9.56C20.3071 10.3495 20.041 11.1165 19.5509 11.7402C19.0607 12.3638 18.3744 12.8086 17.6 13.0044M14.9 9.55556C14.9 11.5192 13.2882 13.1111 11.3 13.1111C9.31177 13.1111 7.7 11.5192 7.7 9.55556C7.7 7.59188 9.31177 6 11.3 6C13.2882 6 14.9 7.59188 14.9 9.55556Z" stroke="#1C1C1C" stroke-width="2" stroke-linecap="round" stroke-linejoin="round"/>
</svg>
