<svg width="50" height="50" viewBox="0 0 50 50" fill="none" xmlns="http://www.w3.org/2000/svg">
<path d="M11.0498 43.583H38.9502C39.2888 43.5831 39.6179 43.7283 39.8633 43.9922C40.109 44.2567 40.25 44.6189 40.25 45V48.333C40.25 48.7143 40.1092 49.0773 39.8633 49.3418C39.6179 49.6057 39.2888 49.7499 38.9502 49.75H11.0498C10.7112 49.7499 10.3821 49.6057 10.1367 49.3418C9.89075 49.0773 9.75 48.7143 9.75 48.333V45C9.75 44.6189 9.89095 44.2567 10.1367 43.9922C10.3821 43.7283 10.7112 43.5831 11.0498 43.583ZM25 0.25C27.5997 0.25 30.0972 1.36076 31.9414 3.34375C33.7858 5.32723 34.8251 8.02084 34.8252 10.833C34.8252 14.6272 32.9565 17.925 30.1787 19.793L29.499 20.25H32.75C33.0887 20.25 33.4177 20.3943 33.6631 20.6582C33.9091 20.9227 34.0498 21.2857 34.0498 21.667V25C34.0498 25.3812 33.9089 25.7433 33.6631 26.0078C33.4177 26.2717 33.0887 26.417 32.75 26.417H30.9502V27.2383C30.9502 31.6831 31.3225 36.0322 33.1211 39.75H16.8789C18.6749 36.0323 19.0498 31.6833 19.0498 27.2383V26.417H17.25C16.9113 26.417 16.5823 26.2717 16.3369 26.0078C16.0911 25.7433 15.9502 25.3812 15.9502 25V21.667C15.9502 21.2857 16.0909 20.9227 16.3369 20.6582C16.5823 20.3943 16.9113 20.25 17.25 20.25H20.501L19.8213 19.793C17.0435 17.925 15.1748 14.6272 15.1748 10.833C15.1749 8.02084 16.2142 5.32723 18.0586 3.34375C19.9028 1.36076 22.4003 0.25 25 0.25Z" fill="#40403F" stroke="#1C1C1C" stroke-width="0.5"/>
</svg>
