<svg width="50" height="50" viewBox="0 0 50 50" fill="none" xmlns="http://www.w3.org/2000/svg">
<path d="M8.04199 43.583H41.958C42.294 43.583 42.6212 43.7274 42.8652 43.9912C43.1098 44.2556 43.25 44.6183 43.25 45V48.333C43.25 48.7146 43.1097 49.0774 42.8652 49.3418C42.6212 49.6056 42.294 49.75 41.958 49.75H8.04199C7.70599 49.75 7.37877 49.6056 7.13477 49.3418C6.89032 49.0774 6.75 48.7146 6.75 48.333V45C6.75 44.6183 6.89022 44.2556 7.13477 43.9912C7.37877 43.7274 7.70599 43.583 8.04199 43.583ZM25 19.75C24.1094 19.75 23.2591 20.1328 22.6357 20.8066C22.0132 21.4798 21.6671 22.3889 21.667 23.333V30.25H28.333V23.333C28.3329 22.3888 27.986 21.4798 27.3633 20.8066C26.74 20.1329 25.8905 19.75 25 19.75ZM12.917 23.1846L12.7852 23.1133L6.75 19.8506V1.66699C6.75 1.2854 6.89032 0.922626 7.13477 0.658203C7.37877 0.39441 7.70599 0.25 8.04199 0.25H13.4473C13.7832 0.250037 14.1095 0.394444 14.3535 0.658203C14.5981 0.922648 14.7393 1.28527 14.7393 1.66699V6.91699H19.8545V1.66699C19.8545 1.28532 19.9947 0.92264 20.2393 0.658203C20.4832 0.394495 20.8096 0.250093 21.1455 0.25H28.8545C29.1904 0.250093 29.5168 0.394495 29.7607 0.658203C30.0053 0.92264 30.1455 1.28532 30.1455 1.66699V6.91699H35.2705V1.66699C35.2705 1.28525 35.4116 0.922652 35.6562 0.658203C35.9003 0.394422 36.2265 0.25 36.5625 0.25H41.958C42.294 0.25 42.6212 0.39441 42.8652 0.658203C43.1097 0.922627 43.25 1.2854 43.25 1.66699V19.8506L37.2148 23.1133L37.083 23.1846V23.333C37.083 28.2401 37.2286 33.1099 38.3125 39.75H11.6875C12.7714 33.1117 12.917 28.3028 12.917 23.333V23.1846Z" fill="#40403F" stroke="#1C1C1C" stroke-width="0.5"/>
</svg>
