<svg width="50" height="50" viewBox="0 0 50 50" fill="none" xmlns="http://www.w3.org/2000/svg">
<path d="M10.5996 44H39.4004C39.7602 44.0001 40.1038 44.14 40.3564 44.3867C40.609 44.6333 40.75 44.9663 40.75 45.3125V48.4375C40.75 48.7837 40.609 49.1167 40.3564 49.3633C40.1038 49.61 39.7602 49.7499 39.4004 49.75H10.5996C10.2398 49.7499 9.8962 49.61 9.64355 49.3633C9.39101 49.1167 9.25 48.7837 9.25 48.4375V45.3125C9.25 44.9663 9.39101 44.6333 9.64355 44.3867C9.8962 44.14 10.2398 44.0001 10.5996 44ZM15.6504 36.1904L15.4746 36.1367C13.8126 35.6205 12.4652 34.8386 11.5303 33.5908C10.5954 32.343 10.0498 30.5988 10.0498 28.1133C10.0498 24.589 11.5245 20.2106 13.6709 16.1611C15.8163 12.1137 18.613 8.43277 21.2188 6.29785L21.6084 5.97852L21.1182 5.86133C19.8164 5.55078 18.8496 4.46002 18.8496 3.125C18.8496 2.36444 19.1593 1.6334 19.7119 1.09375C20.2647 0.554068 21.0157 0.250051 21.7998 0.25H28.2002C28.9843 0.25005 29.7353 0.554068 30.2881 1.09375C30.8407 1.6334 31.1504 2.36444 31.1504 3.125C31.1504 4.46467 30.1838 5.55072 28.8818 5.86133L28.3916 5.97852L28.7812 6.29785C31.1523 8.24225 33.6589 11.4833 35.7129 15.1025L25.0635 25.5078C24.8661 25.7007 24.7539 25.9639 24.7539 26.2393C24.754 26.5144 24.8662 26.7769 25.0635 26.9697L26.1943 28.0742C26.3917 28.2668 26.6581 28.374 26.9346 28.374C27.211 28.374 27.4775 28.2668 27.6748 28.0742L37.4492 18.5264C38.9562 21.8712 39.9502 25.2677 39.9502 28.1133C39.9502 30.5968 39.4047 32.3415 38.4697 33.5898C37.5348 34.838 36.1872 35.6205 34.5254 36.1367L34.3496 36.1904V40.375H15.6504V36.1904Z" fill="white" stroke="#1C1C1C" stroke-width="0.5"/>
</svg>
