<svg width="50" height="50" viewBox="0 0 50 50" fill="none" xmlns="http://www.w3.org/2000/svg">
<g clip-path="url(#clip0_2980_17193)">
<path d="M5.35449 44H44.6455C45.0626 44.0001 45.457 44.1453 45.7432 44.3955C46.0284 44.645 46.1807 44.976 46.1807 45.3125V48.4375C46.1807 48.774 46.0284 49.105 45.7432 49.3545C45.457 49.6047 45.0626 49.7499 44.6455 49.75H5.35449C4.93742 49.7499 4.54297 49.6047 4.25684 49.3545C3.97164 49.105 3.81934 48.774 3.81934 48.4375V45.3125C3.81934 44.976 3.97164 44.645 4.25684 44.3955C4.54297 44.1453 4.93742 44.0001 5.35449 44ZM22.3213 0.25H27.6787C27.8592 0.25 28.0267 0.313097 28.1455 0.416992C28.2632 0.519997 28.3223 0.651955 28.3223 0.78125V4.9375H33.0361C33.2165 4.9375 33.3841 5.00069 33.5029 5.10449C33.6207 5.2075 33.6797 5.33946 33.6797 5.46875V10.1562C33.6797 10.2855 33.6207 10.4175 33.5029 10.5205C33.3841 10.6243 33.2165 10.6875 33.0361 10.6875H28.3223V15.875H46.4307C46.9567 15.8754 47.4745 15.9844 47.9414 16.1914C48.4081 16.3983 48.8097 16.6967 49.1152 17.0605C49.4207 17.4243 49.6222 17.843 49.7061 18.2822C49.7894 18.7189 49.7546 19.1668 49.6045 19.5908L41.5088 40.375H8.49121L0.395508 19.5908C0.245441 19.1668 0.210622 18.7189 0.293945 18.2822C0.377773 17.843 0.57934 17.4243 0.884766 17.0605C1.1903 16.6967 1.5919 16.3983 2.05859 16.1914C2.467 16.0104 2.91435 15.9038 3.37207 15.8799L3.56934 15.875H21.6777V10.6875H16.9639C16.7835 10.6875 16.6159 10.6243 16.4971 10.5205C16.3793 10.4175 16.3203 10.2855 16.3203 10.1562V5.46875C16.3203 5.33946 16.3793 5.2075 16.4971 5.10449C16.6159 5.00069 16.7835 4.9375 16.9639 4.9375H21.6777V0.78125C21.6777 0.651957 21.7368 0.519998 21.8545 0.416992C21.9733 0.313097 22.1408 0.25 22.3213 0.25Z" fill="white" stroke="#1C1C1C" stroke-width="0.5"/>
</g>
<defs>
<clipPath id="clip0_2980_17193">
<rect width="50" height="50" fill="white"/>
</clipPath>
</defs>
</svg>
