<svg width="50" height="50" viewBox="0 0 50 50" fill="none" xmlns="http://www.w3.org/2000/svg">
<g clip-path="url(#clip0_2980_17191)">
<path d="M7.8125 44H42.1875C42.5356 44 42.8691 44.1387 43.1152 44.3848C43.3614 44.6309 43.5 44.9644 43.5 45.3125V48.4375C43.5 48.7856 43.3614 49.1191 43.1152 49.3652C42.8691 49.6113 42.5356 49.75 42.1875 49.75H7.8125C7.46442 49.75 7.1309 49.6113 6.88477 49.3652C6.63862 49.1191 6.5 48.7856 6.5 48.4375V45.3125C6.5 44.9644 6.63863 44.6309 6.88477 44.3848C7.1309 44.1387 7.46442 44 7.8125 44ZM15.3711 12.75H19.1572C19.6443 12.75 20.0734 13.0715 20.168 13.5195C20.4014 14.6279 21.0092 15.6222 21.8887 16.3359C22.7684 17.0497 23.8672 17.4395 25 17.4395C26.1328 17.4395 27.2316 17.0497 28.1113 16.3359C28.9908 15.6222 29.5986 14.6279 29.832 13.5195L29.8311 13.5186C29.9259 13.0721 30.3596 12.75 30.8428 12.75H34.6289C34.9097 12.75 35.1794 12.862 35.3779 13.0605V13.0596C35.5765 13.2581 35.6875 13.5278 35.6875 13.8086C35.6875 16.2075 37.2886 18.4676 39.6846 18.9121C40.5886 19.088 41.5236 19.0054 42.3828 18.6738C43.2424 18.342 43.9905 17.7743 44.542 17.0361L44.543 17.0371C45.0045 16.4248 45.7847 16.2371 46.3799 16.6367L46.3975 16.6484L49.1729 18.1982C49.4349 18.3756 49.6247 18.6413 49.7061 18.9473C49.7882 19.2565 49.7544 19.5859 49.6113 19.8721L49.6104 19.874L39.6641 40.375H10.3359L0.389648 19.8779L0.388672 19.876L0.339844 19.7666C0.238627 19.5077 0.222024 19.2218 0.293945 18.9512C0.375881 18.6432 0.567286 18.3756 0.832031 18.1982L3.6084 16.6436L3.61719 16.6387L3.625 16.6338C4.2163 16.2393 4.99371 16.4159 5.44238 17.0176C5.93151 17.6794 6.5798 18.2072 7.32715 18.5518C8.07451 18.8963 8.89686 19.0462 9.71777 18.9883L9.7168 18.9873C12.3718 18.8073 14.3125 16.4312 14.3125 13.8086C14.3125 13.5281 14.4238 13.259 14.6221 13.0605C14.8206 12.862 15.0903 12.75 15.3711 12.75ZM23.0029 0.647461C23.9565 0.252466 25.0062 0.149219 26.0186 0.350586C27.0307 0.552012 27.9607 1.04858 28.6904 1.77832C29.4202 2.50806 29.9167 3.43804 30.1182 4.4502C30.3195 5.46253 30.2163 6.51222 29.8213 7.46582C29.4263 8.41934 28.7575 9.23419 27.8994 9.80762C27.0412 10.3811 26.0322 10.6875 25 10.6875C23.6159 10.6875 22.2883 10.1379 21.3096 9.15918C20.3309 8.18047 19.7812 6.85285 19.7812 5.46875C19.7813 4.43658 20.0877 3.42755 20.6611 2.56934C21.2346 1.71122 22.0494 1.04243 23.0029 0.647461Z" fill="white" stroke="#1C1C1C" stroke-width="0.5"/>
</g>
<defs>
<clipPath id="clip0_2980_17191">
<rect width="50" height="50" fill="white"/>
</clipPath>
</defs>
</svg>
