<svg width="50" height="50" viewBox="0 0 50 50" fill="none" xmlns="http://www.w3.org/2000/svg">
<path d="M8.04199 43.583H41.958C42.294 43.583 42.6212 43.7274 42.8652 43.9912C43.1098 44.2556 43.25 44.6183 43.25 45V48.333C43.25 48.7146 43.1097 49.0774 42.8652 49.3418C42.6212 49.6056 42.294 49.75 41.958 49.75H8.04199C7.70599 49.75 7.37877 49.6056 7.13477 49.3418C6.89033 49.0774 6.75 48.7146 6.75 48.333V45C6.75 44.6183 6.89023 44.2556 7.13477 43.9912C7.37877 43.7274 7.70599 43.583 8.04199 43.583ZM7.65625 0.25H21.9111C31.9684 0.250142 40.1533 9.07764 40.1533 20V39.75H9.83301V38.4873C9.83264 36.9826 10.2202 35.5084 10.9502 34.2305C11.6801 32.9527 12.7229 31.9224 13.96 31.2529L19.4736 28.2686C20.2846 27.83 20.9639 27.1578 21.4375 26.3291C21.911 25.5005 22.1613 24.5474 22.1611 23.5762V17.9141L21.792 18.1133L19.6602 19.2676C19.3287 19.4469 19.0383 19.7011 18.8086 20.0107C18.5812 20.3174 18.419 20.6724 18.3301 21.0508H18.3291L17.4414 24.2432C17.3174 24.6894 17.1015 25.0981 16.8125 25.4395C16.5236 25.7807 16.1692 26.0465 15.7754 26.2168L14.5439 26.75C14.1941 26.9013 13.8198 26.9745 13.4443 26.9668C13.069 26.9591 12.6979 26.8706 12.3535 26.7051L8.43945 24.8232C7.94021 24.5833 7.51287 24.1905 7.21191 23.6895C6.9109 23.1883 6.74966 22.6017 6.75 22.001V7.70801L6.75977 7.48535C6.77948 7.26343 6.82961 7.04522 6.9082 6.83887C7.01288 6.56423 7.16621 6.31597 7.3584 6.10742L8.22559 5.16992L8.33887 5.04688L8.26855 4.89551L6.89941 1.93457C6.80136 1.72297 6.74986 1.48833 6.75 1.25C6.75 0.978768 6.85013 0.722442 7.02246 0.536133C7.19419 0.350482 7.42247 0.250002 7.65625 0.25ZM11.5107 9.75C10.9268 9.75 10.3704 10.001 9.96387 10.4404C9.55815 10.8791 9.33309 11.4704 9.33301 12.083C9.33301 12.5403 9.45863 12.9891 9.69531 13.3721C9.93216 13.7553 10.271 14.0573 10.6709 14.2363C11.0709 14.4154 11.5123 14.4626 11.9385 14.3711C12.3645 14.2795 12.7536 14.0541 13.0566 13.7266C13.3595 13.3992 13.5639 12.9841 13.6465 12.5352C13.7291 12.0862 13.6868 11.6202 13.5244 11.1963C13.3619 10.7724 13.0855 10.407 12.7275 10.1484C12.3693 9.88965 11.9458 9.75007 11.5107 9.75Z" fill="white" stroke="#1C1C1C" stroke-width="0.5"/>
</svg>
