<svg width="24" height="24" viewBox="0 0 24 24" fill="none" xmlns="http://www.w3.org/2000/svg">
<g opacity="0.2">
<path d="M10.5001 3L8.00009 9L12.0001 22M12.0001 22L16.0001 9L13.5001 3M12.0001 22C12.3173 22 12.6294 21.9245 12.9117 21.7799C13.194 21.6352 13.4378 21.4255 13.6231 21.168L21.6131 10.182C21.8666 9.83605 22.0022 9.41776 21.9999 8.98885C21.9975 8.55995 21.8574 8.14316 21.6001 7.8L18.6001 3.8C18.4138 3.55161 18.1722 3.35 17.8945 3.21115C17.6168 3.07229 17.3106 3 17.0001 3H7.00009C6.68901 3.00004 6.38222 3.07264 6.10412 3.21204C5.82602 3.35144 5.58427 3.55379 5.39809 3.803L2.40009 7.8C2.14265 8.14306 2.00231 8.55979 1.99979 8.98869C1.99727 9.41759 2.1327 9.83594 2.38609 10.182L10.3761 21.168C10.5613 21.4255 10.8052 21.6352 11.0875 21.7799C11.3697 21.9245 11.6829 22 12.0001 22ZM2.00009 9H22.0001" stroke="#E5CC7A" stroke-width="2" stroke-linecap="round" stroke-linejoin="round"/>
</g>
</svg>
