<svg width="24" height="24" viewBox="0 0 24 24" fill="none" xmlns="http://www.w3.org/2000/svg">
<g opacity="0.2">
<path d="M11.9999 18.856C11.1299 18.856 10.2629 18.258 9.25788 17.565C8.18588 16.825 6.97088 15.987 5.57888 15.795C0.401879 14.618 0.609879 6.59698 0.620879 6.25598C0.620879 6.01598 0.620879 5.24698 1.33888 5.24698C1.49088 5.24698 1.64888 5.28298 1.84688 5.32798C2.40588 5.45398 3.34588 5.55598 4.35488 5.24998C5.39688 4.93498 6.87488 5.48298 8.40188 6.10198C9.63688 6.60198 10.9149 7.11898 11.9999 7.11898C13.0779 7.11898 14.3509 6.59998 15.5829 6.09898C17.1039 5.47898 18.5769 4.92898 19.6149 5.24098C20.6289 5.54498 21.5779 5.44598 22.1419 5.32098C22.3429 5.27698 22.5009 5.24198 22.6549 5.24198C23.3809 5.24198 23.3809 6.01498 23.3809 6.26898C23.3759 6.63698 23.2079 15.162 18.4879 15.782C16.6839 16.08 15.4459 16.977 14.4509 17.699C13.5939 18.32 12.8539 18.856 11.9999 18.856ZM1.43188 6.05798C1.42688 6.10498 1.42188 6.17298 1.42188 6.26998C1.41988 6.35998 1.22288 13.985 5.72288 15.009C7.26888 15.221 8.56688 16.117 9.71188 16.907C10.6069 17.524 11.3789 18.057 11.9999 18.057C12.5949 18.057 13.2069 17.614 13.9809 17.052C15.0439 16.281 16.3669 15.322 18.3699 14.992C22.4189 14.46 22.5789 6.34598 22.5799 6.26398C22.5799 6.16598 22.5749 6.09698 22.5699 6.05098C22.4979 6.06198 22.4079 6.08198 22.3139 6.10198C21.7109 6.23498 20.5589 6.35798 19.3849 6.00698C18.5929 5.76898 17.2599 6.27798 15.8839 6.83898C14.5819 7.37098 13.2349 7.91898 11.9999 7.91898C10.7599 7.91898 9.40888 7.37198 8.10188 6.84298C6.71988 6.28398 5.37788 5.77698 4.58588 6.01598C3.42288 6.36798 2.26588 6.24298 1.67188 6.10798C1.58288 6.08798 1.49788 6.06898 1.43188 6.05798ZM10.9809 12.401C10.9289 12.401 10.8679 12.388 10.8199 12.369C10.7729 12.363 10.4219 12.349 10.1129 12.336C9.22888 12.301 7.89288 12.248 7.15488 11.983C5.32888 11.329 4.40388 8.58198 4.36488 8.46498C4.32588 8.34798 4.34388 8.21998 4.41188 8.11798C4.47988 8.01498 4.59188 7.94998 4.71388 7.93998C4.71388 7.93998 5.07988 7.91198 5.62888 7.91198C6.55688 7.91198 7.88588 7.99198 8.95088 8.37298C9.79388 8.67498 11.4739 11.555 11.3879 12.056C11.3539 12.248 11.1749 12.401 10.9809 12.401ZM5.32188 8.71498C5.64988 9.47098 6.37588 10.854 7.42388 11.23C8.04688 11.453 9.30888 11.503 10.1439 11.537C10.2339 11.541 10.3149 11.544 10.3889 11.547C9.96788 10.72 9.04488 9.25598 8.68088 9.12598C7.60288 8.74098 6.14588 8.70198 5.32188 8.71498ZM13.0549 12.4C12.8589 12.4 12.6769 12.243 12.6459 12.049C12.5599 11.517 14.4729 8.48198 15.4099 8.17098C15.8799 8.01498 16.4299 7.93598 17.0459 7.93598C18.6849 7.93598 20.2699 8.48598 20.3369 8.50898C20.4449 8.54698 20.5309 8.62898 20.5749 8.73498C20.6179 8.83998 20.6149 8.95998 20.5639 9.06298C20.5199 9.15298 19.4549 11.285 17.4119 11.963C16.5789 12.239 15.0579 12.295 14.0509 12.332C13.6869 12.345 13.2739 12.36 13.1829 12.381C13.1359 12.397 13.1039 12.4 13.0549 12.4ZM17.0459 8.73598C16.5159 8.73598 16.0499 8.80098 15.6619 8.92998C15.2039 9.08198 14.1349 10.677 13.6609 11.546C13.7649 11.542 13.8839 11.537 14.0199 11.532C14.9809 11.497 16.4339 11.444 17.1589 11.203C18.3869 10.796 19.2209 9.71898 19.6039 9.12198C19.0399 8.96598 18.0399 8.73598 17.0459 8.73598Z" stroke="#E5CC7A"/>
</g>
</svg>
