<svg width="24" height="24" viewBox="0 0 24 24" fill="none" xmlns="http://www.w3.org/2000/svg">
<mask id="path-1-inside-1_3511_4581" fill="white">
<path d="M12 1C12.4125 1 12.8195 1.022 13.221 1.0671C13.3646 1.08299 13.5036 1.12701 13.6302 1.19663C13.7568 1.26626 13.8684 1.36014 13.9587 1.47291C14.049 1.58568 14.1162 1.71513 14.1565 1.85386C14.1967 1.9926 14.2093 2.13791 14.1934 2.2815C14.1775 2.42509 14.1335 2.56414 14.0639 2.69072C13.9942 2.81729 13.9004 2.92891 13.7876 3.01921C13.6748 3.10951 13.5454 3.17671 13.4066 3.21697C13.2679 3.25724 13.1226 3.26979 12.979 3.2539C11.1662 3.05111 9.33528 3.41663 7.73934 4.29992C6.14341 5.1832 4.86139 6.54058 4.07061 8.18432C3.27984 9.82805 3.01938 11.6769 3.32528 13.4751C3.63118 15.2733 4.48831 16.9321 5.77811 18.2219C7.06792 19.5117 8.72665 20.3688 10.5249 20.6747C12.3231 20.9806 14.172 20.7202 15.8157 19.9294C17.4594 19.1386 18.8168 17.8566 19.7001 16.2607C20.5834 14.6647 20.9489 12.8338 20.7461 11.021C20.7302 10.8774 20.7428 10.7321 20.783 10.5934C20.8233 10.4546 20.8905 10.3252 20.9808 10.2124C21.1632 9.98467 21.4285 9.83869 21.7185 9.8066C22.0085 9.77451 22.2993 9.85893 22.5271 10.0413C22.6399 10.1316 22.7337 10.2432 22.8034 10.3698C22.873 10.4964 22.917 10.6354 22.9329 10.779C22.9769 11.1805 23 11.5875 23 12C23 18.0753 18.0753 23 12 23C5.9247 23 1 18.0753 1 12C1 5.9247 5.9247 1 12 1ZM11.9648 7.4647C12.0373 7.7471 11.9947 8.04672 11.8464 8.29774C11.6981 8.54876 11.4562 8.73063 11.1739 8.8034C10.3983 9.00658 9.72304 9.48504 9.27424 10.1495C8.82544 10.8139 8.63373 11.619 8.73487 12.4144C8.83601 13.2098 9.2231 13.9412 9.82391 14.4722C10.4247 15.0032 11.1982 15.2974 12 15.3C12.7317 15.2999 13.4427 15.0568 14.0213 14.6088C14.5999 14.1609 15.0133 13.5334 15.1966 12.825C15.2746 12.5482 15.4578 12.3129 15.7072 12.1696C15.9565 12.0263 16.252 11.9863 16.5305 12.0582C16.8089 12.1301 17.0481 12.3082 17.1969 12.5543C17.3456 12.8005 17.392 13.0951 17.3262 13.375C16.9888 14.6685 16.1919 15.795 15.0846 16.5439C13.9772 17.2927 12.6351 17.6129 11.3089 17.4445C9.98277 17.276 8.76329 16.6305 7.87831 15.6286C6.99332 14.6267 6.50338 13.3368 6.5 12C6.50019 10.7806 6.90543 9.59585 7.65207 8.6318C8.39871 7.66774 9.44444 6.97901 10.625 6.6738C10.7649 6.63774 10.9105 6.62959 11.0536 6.64983C11.1966 6.67006 11.3343 6.71828 11.4587 6.79172C11.5831 6.86517 11.6919 6.9624 11.7787 7.07787C11.8655 7.19334 11.9288 7.32479 11.9648 7.4647ZM19.1544 1.1397C19.3552 1.22295 19.5268 1.36381 19.6476 1.54451C19.7684 1.72521 19.8329 1.93764 19.8331 2.155V4.168H21.845C22.0625 4.16805 22.2752 4.23259 22.456 4.35346C22.6369 4.47433 22.7778 4.64611 22.861 4.84708C22.9443 5.04805 22.9661 5.26919 22.9236 5.48253C22.8812 5.69588 22.7765 5.89186 22.6227 6.0457L18.732 9.932C18.5258 10.1383 18.246 10.2542 17.9543 10.2543H15.3L13.2892 12.2662C13.0828 12.4726 12.8029 12.5886 12.511 12.5886C12.2191 12.5886 11.9391 12.4726 11.7327 12.2662C11.5263 12.0598 11.4103 11.7799 11.4103 11.488C11.4103 11.196 11.5263 10.9161 11.7327 10.7097L13.7446 8.7V6.0446C13.7447 5.75289 13.8606 5.47314 14.0669 5.2669L17.9554 1.3773C18.1092 1.22337 18.3053 1.11853 18.5187 1.07604C18.7321 1.03355 18.9533 1.05532 19.1544 1.1386M17.6331 4.8093L15.9446 6.5V8.0554H17.5L19.1896 6.3669H18.7331C18.4414 6.3669 18.1616 6.25101 17.9553 6.04472C17.749 5.83843 17.6331 5.55864 17.6331 5.2669V4.8093Z"/>
</mask>
<path d="M13.221 1.0671L12.9977 3.0546L13.001 3.05497L13.221 1.0671ZM12.979 3.2539L12.7566 5.2415L12.759 5.24176L12.979 3.2539ZM20.7461 11.021L18.7582 11.241L18.7585 11.2434L20.7461 11.021ZM20.9808 10.2124L22.542 11.4625L20.9808 10.2124ZM22.5271 10.0413L23.7772 8.4801L22.5271 10.0413ZM22.9329 10.779L24.921 10.5611L24.9208 10.559L22.9329 10.779ZM11.9648 7.4647L13.902 6.9674L13.9016 6.966L11.9648 7.4647ZM11.1739 8.8034L10.6747 6.86668L10.6671 6.86868L11.1739 8.8034ZM12 15.3L11.9935 17.3H12.0002L12 15.3ZM15.1966 12.825L13.2715 12.2828L13.2657 12.3033L13.2604 12.324L15.1966 12.825ZM17.3262 13.375L19.2614 13.8799L19.2676 13.8564L19.2731 13.8328L17.3262 13.375ZM6.5 12L4.49999 11.9997L4.50001 12.0051L6.5 12ZM10.625 6.6738L10.1258 4.73709L10.1244 4.73746L10.625 6.6738ZM19.8331 2.155H21.8331L21.8331 2.1535L19.8331 2.155ZM19.8331 4.168H17.8331V6.168H19.8331V4.168ZM21.845 4.168L21.8454 2.168H21.845V4.168ZM22.6227 6.0457L24.0361 7.46071L24.0371 7.4597L22.6227 6.0457ZM18.732 9.932L17.3186 8.51699L17.3176 8.518L18.732 9.932ZM17.9543 10.2543V12.2543H17.9547L17.9543 10.2543ZM15.3 10.2543V8.2543H14.4713L13.8854 8.84047L15.3 10.2543ZM13.2892 12.2662L14.7034 13.6804L14.7038 13.68L13.2892 12.2662ZM11.7327 10.7097L10.3193 9.29471L10.3185 9.29549L11.7327 10.7097ZM13.7446 8.7L15.158 10.115L15.7446 9.52907V8.7H13.7446ZM13.7446 6.0446L11.7446 6.04417V6.0446H13.7446ZM14.0669 5.2669L15.4809 6.68133L15.4813 6.68091L14.0669 5.2669ZM17.9554 1.3773L19.3698 2.79131L19.3701 2.79107L17.9554 1.3773ZM17.6331 4.8093H19.6331V-0.0235771L16.218 3.39601L17.6331 4.8093ZM15.9446 6.5L14.5295 5.08671L13.9446 5.67234V6.5H15.9446ZM15.9446 8.0554H13.9446V10.0554H15.9446V8.0554ZM17.5 8.0554V10.0554H18.328L18.9138 9.47007L17.5 8.0554ZM19.1896 6.3669L20.6034 7.78157L24.0203 4.3669H19.1896V6.3669ZM12 1V3C12.3413 3 12.6737 3.0182 12.9977 3.0546L13.221 1.0671L13.4443 -0.9204C12.9653 -0.974197 12.4837 -1 12 -1V1ZM13.221 1.0671L13.001 3.05497C12.8836 3.04197 12.7698 3.00596 12.6663 2.949L13.6302 1.19663L14.5942 -0.555728C14.2375 -0.751947 13.8456 -0.875986 13.441 -0.920765L13.221 1.0671ZM13.6302 1.19663L12.6663 2.949C12.5627 2.89204 12.4714 2.81524 12.3975 2.72299L13.9587 1.47291L15.5199 0.22283C15.2654 -0.0949599 14.9509 -0.359512 14.5942 -0.555728L13.6302 1.19663ZM13.9587 1.47291L12.3975 2.72299C12.3237 2.63073 12.2687 2.52484 12.2357 2.41135L14.1565 1.85386L16.0772 1.29638C15.9637 0.905415 15.7744 0.54062 15.5199 0.22283L13.9587 1.47291ZM14.1565 1.85386L12.2357 2.41135C12.2028 2.29786 12.1925 2.17899 12.2055 2.06151L14.1934 2.2815L16.1813 2.50148C16.226 2.09684 16.1907 1.68734 16.0772 1.29638L14.1565 1.85386ZM14.1934 2.2815L12.2055 2.06151C12.2185 1.94404 12.2545 1.83029 12.3115 1.72675L14.0639 2.69072L15.8162 3.65468C16.0124 3.29798 16.1365 2.90613 16.1813 2.50148L14.1934 2.2815ZM14.0639 2.69072L12.3115 1.72675C12.3685 1.62321 12.4453 1.53189 12.5375 1.45802L13.7876 3.01921L15.0377 4.5804C15.3555 4.32594 15.62 4.01138 15.8162 3.65468L14.0639 2.69072ZM13.7876 3.01921L12.5375 1.45802C12.6298 1.38416 12.7357 1.32918 12.8492 1.29624L13.4066 3.21697L13.9641 5.13771C14.3551 5.02423 14.7199 4.83485 15.0377 4.5804L13.7876 3.01921ZM13.4066 3.21697L12.8492 1.29624C12.9627 1.2633 13.0815 1.25304 13.199 1.26603L12.979 3.2539L12.759 5.24176C13.1637 5.28654 13.5731 5.25119 13.9641 5.13771L13.4066 3.21697ZM12.979 3.2539L13.2014 1.2663C10.9766 1.01742 8.72951 1.46602 6.77086 2.55005L7.73934 4.29992L8.70782 6.04979C9.94104 5.36725 11.3559 5.0848 12.7566 5.2415L12.979 3.2539ZM7.73934 4.29992L6.77086 2.55005C4.81222 3.63407 3.23883 5.29995 2.26833 7.31726L4.07061 8.18432L5.87289 9.05137C6.48395 7.78121 7.4746 6.73232 8.70782 6.04979L7.73934 4.29992ZM4.07061 8.18432L2.26833 7.31726C1.29783 9.33457 0.978185 11.6036 1.35361 13.8105L3.32528 13.4751L5.29696 13.1397C5.06058 11.7502 5.26184 10.3215 5.87289 9.05137L4.07061 8.18432ZM3.32528 13.4751L1.35361 13.8105C1.72903 16.0174 2.78096 18.0532 4.3639 19.6361L5.77811 18.2219L7.19233 16.8077C6.19566 15.811 5.53333 14.5293 5.29696 13.1397L3.32528 13.4751ZM5.77811 18.2219L4.3639 19.6361C5.94684 21.219 7.98256 22.271 10.1895 22.6464L10.5249 20.6747L10.8603 18.703C9.47074 18.4667 8.18899 17.8043 7.19233 16.8077L5.77811 18.2219ZM10.5249 20.6747L10.1895 22.6464C12.3964 23.0218 14.6654 22.7022 16.6827 21.7317L15.8157 19.9294L14.9486 18.1271C13.6785 18.7382 12.2498 18.9394 10.8603 18.703L10.5249 20.6747ZM15.8157 19.9294L16.6827 21.7317C18.7 20.7612 20.3659 19.1878 21.45 17.2291L19.7001 16.2607L17.9502 15.2922C17.2677 16.5254 16.2188 17.5161 14.9486 18.1271L15.8157 19.9294ZM19.7001 16.2607L21.45 17.2291C22.534 15.2705 22.9826 13.0234 22.7337 10.7986L20.7461 11.021L18.7585 11.2434C18.9152 12.6441 18.6327 14.059 17.9502 15.2922L19.7001 16.2607ZM20.7461 11.021L22.734 10.801C22.747 10.9185 22.7367 11.0373 22.7038 11.1508L20.783 10.5934L18.8623 10.0359C18.7488 10.4269 18.7135 10.8364 18.7582 11.241L20.7461 11.021ZM20.783 10.5934L22.7038 11.1508C22.6708 11.2644 22.6158 11.3702 22.542 11.4625L20.9808 10.2124L19.4196 8.96233C19.1652 9.2801 18.9758 9.64489 18.8623 10.0359L20.783 10.5934ZM20.9808 10.2124L22.542 11.4625C22.3928 11.6488 22.1757 11.7682 21.9385 11.7945L21.7185 9.8066L21.4985 7.81873C20.6813 7.90917 19.9335 8.32054 19.4196 8.96233L20.9808 10.2124ZM21.7185 9.8066L21.9385 11.7945C21.7013 11.8207 21.4633 11.7517 21.277 11.6025L22.5271 10.0413L23.7772 8.4801C23.1354 7.9662 22.3157 7.7283 21.4985 7.81873L21.7185 9.8066ZM22.5271 10.0413L21.277 11.6025C21.1848 11.5286 21.108 11.4373 21.051 11.3337L22.8034 10.3698L24.5557 9.40582C24.3595 9.04912 24.095 8.73456 23.7772 8.4801L22.5271 10.0413ZM22.8034 10.3698L21.051 11.3337C20.994 11.2302 20.958 11.1164 20.945 10.999L22.9329 10.779L24.9208 10.559C24.876 10.1544 24.752 9.76253 24.5557 9.40582L22.8034 10.3698ZM22.9329 10.779L20.9448 10.9969C20.9811 11.3281 21 11.6623 21 12H23H25C25 11.5127 24.9727 11.0329 24.921 10.5611L22.9329 10.779ZM23 12H21C21 16.9707 16.9707 21 12 21V23V25C19.1799 25 25 19.1799 25 12H23ZM12 23V21C7.02927 21 3 16.9707 3 12H1H-1C-1 19.1799 4.82013 25 12 25V23ZM1 12H3C3 7.02927 7.02927 3 12 3V1V-1C4.82013 -1 -1 4.82013 -1 12H1ZM11.9648 7.4647L10.0276 7.962C9.9683 7.73095 10.0031 7.4858 10.1245 7.28042L11.8464 8.29774L13.5684 9.31505C13.9863 8.60764 14.1063 7.76325 13.902 6.9674L11.9648 7.4647ZM11.8464 8.29774L10.1245 7.28042C10.2458 7.07504 10.4437 6.92624 10.6747 6.8667L11.1739 8.8034L11.6731 10.7401C12.4687 10.535 13.1504 10.0225 13.5684 9.31505L11.8464 8.29774ZM11.1739 8.8034L10.6671 6.86868C9.42167 7.19492 8.3375 7.96316 7.61689 9.03002L9.27424 10.1495L10.9316 11.2689C11.1086 11.0069 11.3748 10.8182 11.6807 10.7381L11.1739 8.8034ZM9.27424 10.1495L7.61689 9.03002C6.89628 10.0969 6.58845 11.3895 6.75085 12.6667L8.73487 12.4144L10.7189 12.1621C10.679 11.8484 10.7546 11.531 10.9316 11.2689L9.27424 10.1495ZM8.73487 12.4144L6.75085 12.6667C6.91325 13.9438 7.53478 15.1182 8.49947 15.9708L9.82391 14.4722L11.1484 12.9736C10.9114 12.7642 10.7588 12.4757 10.7189 12.1621L8.73487 12.4144ZM9.82391 14.4722L8.49947 15.9708C9.46416 16.8234 10.7061 17.2958 11.9935 17.3L12 15.3L12.0065 13.3C11.6903 13.299 11.3853 13.183 11.1484 12.9736L9.82391 14.4722ZM12 15.3L12.0002 17.3C13.1751 17.2999 14.3167 16.9095 15.2457 16.1902L14.0213 14.6088L12.7969 13.0274C12.5687 13.2041 12.2884 13.3 11.9998 13.3L12 15.3ZM14.0213 14.6088L15.2457 16.1902C16.1747 15.4709 16.8385 14.4635 17.1328 13.326L15.1966 12.825L13.2604 12.324C13.1881 12.6034 13.0251 12.8508 12.7969 13.0274L14.0213 14.6088ZM15.1966 12.825L17.1217 13.3672C17.0579 13.5937 16.9079 13.7862 16.704 13.9035L15.7072 12.1696L14.7104 10.4357C14.0077 10.8396 13.4912 11.5027 13.2715 12.2828L15.1966 12.825ZM15.7072 12.1696L16.704 13.9035C16.5 14.0208 16.2582 14.0535 16.0303 13.9946L16.5305 12.0582L17.0306 10.1217C16.2459 9.91906 15.413 10.0318 14.7104 10.4357L15.7072 12.1696ZM16.5305 12.0582L16.0303 13.9946C15.8025 13.9358 15.6068 13.7901 15.4851 13.5887L17.1969 12.5543L18.9086 11.5199C18.4894 10.8263 17.8153 10.3244 17.0306 10.1217L16.5305 12.0582ZM17.1969 12.5543L15.4851 13.5887C15.3634 13.3873 15.3254 13.1463 15.3793 12.9172L17.3262 13.375L19.2731 13.8328C19.4586 13.0438 19.3278 12.2136 18.9086 11.5199L17.1969 12.5543ZM17.3262 13.375L15.391 12.8701C15.1762 13.6935 14.669 14.4105 13.9642 14.8872L15.0846 16.5439L16.205 18.2006C17.7149 17.1794 18.8013 15.6436 19.2614 13.8799L17.3262 13.375ZM15.0846 16.5439L13.9642 14.8872C13.2593 15.3638 12.405 15.5676 11.5609 15.4604L11.3089 17.4445L11.0569 19.4285C12.8652 19.6582 14.6951 19.2217 16.205 18.2006L15.0846 16.5439ZM11.3089 17.4445L11.5609 15.4604C10.7168 15.3532 9.9406 14.9423 9.3773 14.3046L7.87831 15.6286L6.37931 16.9526C7.58598 18.3188 9.24874 19.1989 11.0569 19.4285L11.3089 17.4445ZM7.87831 15.6286L9.3773 14.3046C8.814 13.6668 8.50214 12.8458 8.49999 11.9949L6.5 12L4.50001 12.0051C4.50461 13.8278 5.17265 15.5865 6.37931 16.9526L7.87831 15.6286ZM6.5 12L8.5 12.0003C8.50012 11.2242 8.75806 10.4701 9.2333 9.85642L7.65207 8.6318L6.07084 7.40717C5.0528 8.72166 4.50026 10.3371 4.5 11.9997L6.5 12ZM7.65207 8.6318L9.2333 9.85642C9.70854 9.24279 10.3742 8.80441 11.1256 8.61014L10.625 6.6738L10.1244 4.73746C8.51472 5.15361 7.08887 6.09269 6.07084 7.40717L7.65207 8.6318ZM10.625 6.6738L11.1242 8.6105C11.0097 8.64001 10.8905 8.64667 10.7735 8.63012L11.0536 6.64983L11.3337 4.66954C10.9305 4.61252 10.5201 4.63547 10.1258 4.7371L10.625 6.6738ZM11.0536 6.64983L10.7735 8.63012C10.6565 8.61356 10.5438 8.57412 10.442 8.51402L11.4587 6.79172L12.4754 5.06942C12.1248 4.86244 11.7368 4.72656 11.3337 4.66954L11.0536 6.64983ZM11.4587 6.79172L10.442 8.51402C10.3402 8.45393 10.2513 8.37438 10.1802 8.2799L11.7787 7.07787L13.3772 5.87584C13.1325 5.55042 12.8261 5.2764 12.4754 5.06942L11.4587 6.79172ZM11.7787 7.07787L10.1802 8.2799C10.1092 8.18543 10.0575 8.07788 10.028 7.9634L11.9648 7.4647L13.9016 6.966C13.8001 6.57169 13.6219 6.20125 13.3772 5.87584L11.7787 7.07787ZM19.1544 1.1397L18.3884 2.9872C18.2241 2.91909 18.0837 2.80383 17.9849 2.65599L19.6476 1.54451L21.3103 0.433032C20.9699 -0.0762107 20.4862 -0.473191 19.9204 -0.707797L19.1544 1.1397ZM19.6476 1.54451L17.9849 2.65599C17.8861 2.50815 17.8332 2.33434 17.8331 2.1565L19.8331 2.155L21.8331 2.1535C21.8326 1.54095 21.6507 0.942271 21.3103 0.433032L19.6476 1.54451ZM19.8331 2.155H17.8331V4.168H19.8331H21.8331V2.155H19.8331ZM19.8331 4.168V6.168H21.845V4.168V2.168H19.8331V4.168ZM21.845 4.168L21.8446 6.168C21.6666 6.16796 21.4926 6.11516 21.3447 6.01626L22.456 4.35346L23.5673 2.69065C23.0577 2.35001 22.4585 2.16813 21.8454 2.168L21.845 4.168ZM22.456 4.35346L21.3447 6.01626C21.1967 5.91737 21.0814 5.77682 21.0133 5.61239L22.861 4.84708L24.7088 4.08177C24.4743 3.5154 24.077 3.0313 23.5673 2.69065L22.456 4.35346ZM22.861 4.84708L21.0133 5.61239C20.9452 5.44796 20.9273 5.26703 20.962 5.09247L22.9236 5.48253L24.8852 5.8726C25.0048 5.27134 24.9434 4.64814 24.7088 4.08177L22.861 4.84708ZM22.9236 5.48253L20.962 5.09247C20.9968 4.91791 21.0824 4.75756 21.2083 4.6317L22.6227 6.0457L24.0371 7.4597C24.4705 7.02616 24.7657 6.47386 24.8852 5.8726L22.9236 5.48253ZM22.6227 6.0457L21.2093 4.63069L17.3186 8.51699L18.732 9.932L20.1454 11.347L24.0361 7.46071L22.6227 6.0457ZM18.732 9.932L17.3176 8.518C17.4863 8.34921 17.7152 8.25435 17.9539 8.2543L17.9543 10.2543L17.9547 12.2543C18.7768 12.2541 19.5652 11.9274 20.1464 11.346L18.732 9.932ZM17.9543 10.2543V8.2543H15.3V10.2543V12.2543H17.9543V10.2543ZM15.3 10.2543L13.8854 8.84047L11.8746 10.8524L13.2892 12.2662L14.7038 13.68L16.7146 11.6681L15.3 10.2543ZM13.2892 12.2662L11.875 10.852C12.0437 10.6833 12.2724 10.5886 12.511 10.5886V12.5886V14.5886C13.3333 14.5886 14.1219 14.2619 14.7034 13.6804L13.2892 12.2662ZM12.511 12.5886V10.5886C12.7495 10.5886 12.9782 10.6833 13.1469 10.852L11.7327 12.2662L10.3185 13.6804C10.9 14.2619 11.6886 14.5886 12.511 14.5886V12.5886ZM11.7327 12.2662L13.1469 10.852C13.3156 11.0207 13.4103 11.2494 13.4103 11.488H11.4103H9.41034C9.41034 12.3103 9.73701 13.0989 10.3185 13.6804L11.7327 12.2662ZM11.4103 11.488H13.4103C13.4103 11.7265 13.3156 11.9552 13.1469 12.1239L11.7327 10.7097L10.3185 9.29549C9.73701 9.87696 9.41034 10.6656 9.41034 11.488H11.4103ZM11.7327 10.7097L13.1461 12.1247L15.158 10.115L13.7446 8.7L12.3312 7.28501L10.3193 9.29471L11.7327 10.7097ZM13.7446 8.7H15.7446V6.0446H13.7446H11.7446V8.7H13.7446ZM13.7446 6.0446L15.7446 6.04503C15.7445 6.2837 15.6497 6.51258 15.4809 6.68133L14.0669 5.2669L12.6529 3.85247C12.0715 4.4337 11.7448 5.22207 11.7446 6.04417L13.7446 6.0446ZM14.0669 5.2669L15.4813 6.68091L19.3698 2.79131L17.9554 1.3773L16.541 -0.0367135L12.6525 3.85289L14.0669 5.2669ZM17.9554 1.3773L19.3701 2.79107C19.2442 2.91701 19.0838 3.00279 18.9092 3.03755L18.5187 1.07604L18.1282 -0.885462C17.5267 -0.76572 16.9743 -0.470264 16.5407 -0.0364693L17.9554 1.3773ZM18.5187 1.07604L18.9092 3.03755C18.7346 3.07232 18.5536 3.0545 18.3891 2.98637L19.1544 1.1386L19.9197 -0.709169C19.3531 -0.943854 18.7297 -1.00521 18.1282 -0.885462L18.5187 1.07604ZM17.6331 4.8093L16.218 3.39601L14.5295 5.08671L15.9446 6.5L17.3597 7.91329L19.0482 6.22259L17.6331 4.8093ZM15.9446 6.5H13.9446V8.0554H15.9446H17.9446V6.5H15.9446ZM15.9446 8.0554V10.0554H17.5V8.0554V6.0554H15.9446V8.0554ZM17.5 8.0554L18.9138 9.47007L20.6034 7.78157L19.1896 6.3669L17.7758 4.95223L16.0862 6.64073L17.5 8.0554ZM19.1896 6.3669V4.3669H18.7331V6.3669V8.3669H19.1896V6.3669ZM18.7331 6.3669V4.3669C18.9718 4.3669 19.2007 4.46172 19.3695 4.6305L17.9553 6.04472L16.5411 7.45893C17.1224 8.04029 17.9109 8.3669 18.7331 8.3669V6.3669ZM17.9553 6.04472L19.3695 4.6305C19.5383 4.79929 19.6331 5.02821 19.6331 5.2669H17.6331H15.6331C15.6331 6.08907 15.9597 6.87757 16.5411 7.45893L17.9553 6.04472ZM17.6331 5.2669H19.6331V4.8093H17.6331H15.6331V5.2669H17.6331Z" fill="#EEDDA6" mask="url(#path-1-inside-1_3511_4581)"/>
</svg>
